<svg width="600" height="600" xmlns="http://www.w3.org/2000/svg">
 <g id="Layer_1">
  <title>Layer 1</title>
  <g id="svg_9">
   <path stroke="#000" stroke-width="6" id="svg_1" d="m353,53l0.00002,196.99998l196.99998,0l0,-196.99998l-197,0zm165.99074,180.09082l-134.98147,0l0,-163.18167l134.98147,0l0,163.18167zm-102.14814,-99.23209c10.40452,0 18.84634,-10.20547 18.84634,-22.7837c0,-12.58704 -8.44182,-22.78369 -18.84634,-22.78369c-10.41181,0 -18.84633,10.20547 -18.84633,22.78369c0,12.57823 8.43452,22.7837 18.84633,22.7837zm94.85914,19.84641l-35.87588,-43.37104l-50.46849,61.01231l-13.98699,-16.90915l-20.07941,24.27438l0,45.55855l120.41077,0l0,-70.56505z" fill="#fff"/>
   <g stroke-width="6" stroke="null" id="svg_8">
    <rect stroke="#000" transform="matrix(1.14227 0.897384 -0.924996 1.10818 120.079 -130.805)" stroke-width="6" rx="10" id="svg_4" height="126" width="16" y="51.64209" x="137.70755" fill="#fff"/>
    <path stroke="#000" id="svg_7" d="m119.19709,209.56372c3.47707,10.76029 -1.95868,24.48205 -11.78416,29.74734c-6.19571,3.32017 -54.14756,10.63688 -54.41246,8.30251c-0.08646,-0.76191 11.81921,-9.62257 16.93265,-21.67038c8.1912,-19.29933 6.51461,-22.42847 12.33158,-27.27647c5.81697,-4.848 23.37195,-7.93718 31.73049,2.81713c2.43913,3.13826 4.77999,6.77421 5.20191,8.07987l0,0z" opacity="undefined" stroke-width="7" fill="#fff"/>
   </g>
  </g>
  <g id="svg_20">
   <path stroke="#000" stroke-width="6" id="svg_3" d="m151.5,399.33508c40.61107,-113.75196 199.72659,0 0,146.25252c-199.72659,-146.25252 -40.61107,-260.00448 0,-146.25252z" fill="#fff"/>
   <g stroke="null" id="svg_19">
    <path stroke="#000" id="svg_10" d="m550.80003,485.94545c1.32156,29.73556 -27.74935,-1.55573 -35.17562,-13.22574c-7.42626,-11.67001 -30.43451,-14.52617 -42.86398,10.28191c-12.42947,24.80808 -34.90583,37.24541 -68.30634,31.28738c-33.40051,-5.95805 -57.401,-45.26919 -55.3296,-83.46854c2.07141,-38.19935 46.27599,-68.89268 73.86037,-70.59736c27.58437,-1.70468 72.64193,5.75339 96.97823,43.53399c24.3363,37.7806 30.17615,67.32058 30.83693,82.18836z" opacity="undefined" stroke-width="6" fill="#fff"/>
    <ellipse stroke="#000" transform="matrix(-1.07395 0.0663684 -0.0562831 -1.26638 329.024 332.557)" id="svg_11" cy="-158.35921" cx="-143.61041" stroke-width="6" fill="#fff"/>
    <ellipse stroke="#000" transform="matrix(-1.07395 0.0663684 -0.0562831 -1.26638 319.2 104.58)" ry="10" rx="9.5" id="svg_12" cy="-248.36669" cx="-145.82408" stroke-width="6" fill="#fff"/>
    <ellipse stroke="#000" transform="matrix(-1.07395 0.0663684 -0.0562831 -1.26638 239.673 76.3549)" ry="10" rx="9.5" id="svg_15" cy="-260.46341" cx="-182.50743" stroke-width="6" fill="#fff"/>
    <ellipse stroke="#000" transform="matrix(-1.07395 0.0663684 -0.0562831 -1.26638 154.271 89.367)" ry="10" rx="9.5" id="svg_16" cy="-256.37271" cx="-222.34793" stroke-width="6" fill="#fff"/>
    <ellipse stroke="#000" transform="matrix(-1.07395 0.0663684 -0.0562831 -1.26638 95.9907 153.27)" ry="10" rx="9.5" id="svg_17" cy="-231.88649" cx="-250.10446" stroke-width="6" fill="#fff"/>
    <ellipse stroke="#000" transform="matrix(-1.07395 0.0663684 -0.0562831 -1.26638 120.849 234.889)" ry="10" rx="9.5" id="svg_18" cy="-199.40275" cx="-239.3897" stroke-width="6" fill="#fff"/>
   </g>
  </g>
 </g>

</svg>